<?xml version="1.0" standalone="no"?>
<svg xmlns:xlink="http://www.w3.org/1999/xlink" id="wave" style="transform:rotate(0deg); transition: 0.3s" viewBox="0 0 1440 490" version="1.1" xmlns="http://www.w3.org/2000/svg"><defs><linearGradient id="sw-gradient-0" x1="0" x2="0" y1="1" y2="0"><stop stop-color="rgba(243, 106, 62, 1)" offset="0%"/><stop stop-color="rgba(255, 179, 11, 1)" offset="100%"/></linearGradient></defs><path style="transform:translate(0, 0px); opacity:1" fill="url(#sw-gradient-0)" d="M0,49L40,106.2C80,163,160,278,240,310.3C320,343,400,294,480,236.8C560,180,640,114,720,147C800,180,880,310,960,302.2C1040,294,1120,147,1200,147C1280,147,1360,294,1440,359.3C1520,425,1600,408,1680,343C1760,278,1840,163,1920,130.7C2000,98,2080,147,2160,171.5C2240,196,2320,196,2400,187.8C2480,180,2560,163,2640,179.7C2720,196,2800,245,2880,269.5C2960,294,3040,294,3120,245C3200,196,3280,98,3360,73.5C3440,49,3520,98,3600,98C3680,98,3760,49,3840,73.5C3920,98,4000,196,4080,204.2C4160,212,4240,131,4320,138.8C4400,147,4480,245,4560,236.8C4640,229,4720,114,4800,73.5C4880,33,4960,65,5040,89.8C5120,114,5200,131,5280,122.5C5360,114,5440,82,5520,98C5600,114,5680,180,5720,212.3L5760,245L5760,490L5720,490C5680,490,5600,490,5520,490C5440,490,5360,490,5280,490C5200,490,5120,490,5040,490C4960,490,4880,490,4800,490C4720,490,4640,490,4560,490C4480,490,4400,490,4320,490C4240,490,4160,490,4080,490C4000,490,3920,490,3840,490C3760,490,3680,490,3600,490C3520,490,3440,490,3360,490C3280,490,3200,490,3120,490C3040,490,2960,490,2880,490C2800,490,2720,490,2640,490C2560,490,2480,490,2400,490C2320,490,2240,490,2160,490C2080,490,2000,490,1920,490C1840,490,1760,490,1680,490C1600,490,1520,490,1440,490C1360,490,1280,490,1200,490C1120,490,1040,490,960,490C880,490,800,490,720,490C640,490,560,490,480,490C400,490,320,490,240,490C160,490,80,490,40,490L0,490Z"/><defs><linearGradient id="sw-gradient-1" x1="0" x2="0" y1="1" y2="0"><stop stop-color="rgba(243, 106, 62, 1)" offset="0%"/><stop stop-color="rgba(255, 179, 11, 1)" offset="100%"/></linearGradient></defs><path style="transform:translate(0, 50px); opacity:0.9" fill="url(#sw-gradient-1)" d="M0,147L40,179.7C80,212,160,278,240,318.5C320,359,400,376,480,375.7C560,376,640,359,720,310.3C800,261,880,180,960,147C1040,114,1120,131,1200,122.5C1280,114,1360,82,1440,57.2C1520,33,1600,16,1680,65.3C1760,114,1840,229,1920,302.2C2000,376,2080,408,2160,351.2C2240,294,2320,147,2400,106.2C2480,65,2560,131,2640,187.8C2720,245,2800,294,2880,310.3C2960,327,3040,310,3120,261.3C3200,212,3280,131,3360,147C3440,163,3520,278,3600,277.7C3680,278,3760,163,3840,147C3920,131,4000,212,4080,212.3C4160,212,4240,131,4320,122.5C4400,114,4480,180,4560,236.8C4640,294,4720,343,4800,318.5C4880,294,4960,196,5040,204.2C5120,212,5200,327,5280,334.8C5360,343,5440,245,5520,179.7C5600,114,5680,82,5720,65.3L5760,49L5760,490L5720,490C5680,490,5600,490,5520,490C5440,490,5360,490,5280,490C5200,490,5120,490,5040,490C4960,490,4880,490,4800,490C4720,490,4640,490,4560,490C4480,490,4400,490,4320,490C4240,490,4160,490,4080,490C4000,490,3920,490,3840,490C3760,490,3680,490,3600,490C3520,490,3440,490,3360,490C3280,490,3200,490,3120,490C3040,490,2960,490,2880,490C2800,490,2720,490,2640,490C2560,490,2480,490,2400,490C2320,490,2240,490,2160,490C2080,490,2000,490,1920,490C1840,490,1760,490,1680,490C1600,490,1520,490,1440,490C1360,490,1280,490,1200,490C1120,490,1040,490,960,490C880,490,800,490,720,490C640,490,560,490,480,490C400,490,320,490,240,490C160,490,80,490,40,490L0,490Z"/><defs><linearGradient id="sw-gradient-2" x1="0" x2="0" y1="1" y2="0"><stop stop-color="rgba(243, 106, 62, 1)" offset="0%"/><stop stop-color="rgba(255, 179, 11, 1)" offset="100%"/></linearGradient></defs><path style="transform:translate(0, 100px); opacity:0.8" fill="url(#sw-gradient-2)" d="M0,343L40,285.8C80,229,160,114,240,65.3C320,16,400,33,480,73.5C560,114,640,180,720,220.5C800,261,880,278,960,294C1040,310,1120,327,1200,310.3C1280,294,1360,245,1440,261.3C1520,278,1600,359,1680,367.5C1760,376,1840,310,1920,285.8C2000,261,2080,278,2160,245C2240,212,2320,131,2400,114.3C2480,98,2560,147,2640,179.7C2720,212,2800,229,2880,204.2C2960,180,3040,114,3120,98C3200,82,3280,114,3360,114.3C3440,114,3520,82,3600,65.3C3680,49,3760,49,3840,65.3C3920,82,4000,114,4080,130.7C4160,147,4240,147,4320,196C4400,245,4480,343,4560,343C4640,343,4720,245,4800,228.7C4880,212,4960,278,5040,302.2C5120,327,5200,310,5280,285.8C5360,261,5440,229,5520,245C5600,261,5680,327,5720,359.3L5760,392L5760,490L5720,490C5680,490,5600,490,5520,490C5440,490,5360,490,5280,490C5200,490,5120,490,5040,490C4960,490,4880,490,4800,490C4720,490,4640,490,4560,490C4480,490,4400,490,4320,490C4240,490,4160,490,4080,490C4000,490,3920,490,3840,490C3760,490,3680,490,3600,490C3520,490,3440,490,3360,490C3280,490,3200,490,3120,490C3040,490,2960,490,2880,490C2800,490,2720,490,2640,490C2560,490,2480,490,2400,490C2320,490,2240,490,2160,490C2080,490,2000,490,1920,490C1840,490,1760,490,1680,490C1600,490,1520,490,1440,490C1360,490,1280,490,1200,490C1120,490,1040,490,960,490C880,490,800,490,720,490C640,490,560,490,480,490C400,490,320,490,240,490C160,490,80,490,40,490L0,490Z"/><defs><linearGradient id="sw-gradient-3" x1="0" x2="0" y1="1" y2="0"><stop stop-color="rgba(243, 106, 62, 1)" offset="0%"/><stop stop-color="rgba(255, 179, 11, 1)" offset="100%"/></linearGradient></defs><path style="transform:translate(0, 150px); opacity:0.7" fill="url(#sw-gradient-3)" d="M0,196L40,204.2C80,212,160,229,240,228.7C320,229,400,212,480,171.5C560,131,640,65,720,65.3C800,65,880,131,960,130.7C1040,131,1120,65,1200,40.8C1280,16,1360,33,1440,89.8C1520,147,1600,245,1680,245C1760,245,1840,147,1920,147C2000,147,2080,245,2160,277.7C2240,310,2320,278,2400,269.5C2480,261,2560,278,2640,261.3C2720,245,2800,196,2880,187.8C2960,180,3040,212,3120,204.2C3200,196,3280,147,3360,122.5C3440,98,3520,98,3600,138.8C3680,180,3760,261,3840,277.7C3920,294,4000,245,4080,245C4160,245,4240,294,4320,277.7C4400,261,4480,180,4560,138.8C4640,98,4720,98,4800,138.8C4880,180,4960,261,5040,318.5C5120,376,5200,408,5280,367.5C5360,327,5440,212,5520,204.2C5600,196,5680,294,5720,343L5760,392L5760,490L5720,490C5680,490,5600,490,5520,490C5440,490,5360,490,5280,490C5200,490,5120,490,5040,490C4960,490,4880,490,4800,490C4720,490,4640,490,4560,490C4480,490,4400,490,4320,490C4240,490,4160,490,4080,490C4000,490,3920,490,3840,490C3760,490,3680,490,3600,490C3520,490,3440,490,3360,490C3280,490,3200,490,3120,490C3040,490,2960,490,2880,490C2800,490,2720,490,2640,490C2560,490,2480,490,2400,490C2320,490,2240,490,2160,490C2080,490,2000,490,1920,490C1840,490,1760,490,1680,490C1600,490,1520,490,1440,490C1360,490,1280,490,1200,490C1120,490,1040,490,960,490C880,490,800,490,720,490C640,490,560,490,480,490C400,490,320,490,240,490C160,490,80,490,40,490L0,490Z"/></svg>